#!OML:ASF I:\Actors\actors\Patient Classification 1\Patient 1\Session 1\Subject1.ASF
:FULLY-SPECIFIED
:DEGREES
507
root -0.299192 17.5645 7.69664 6.22219 -2.52156 -7.08983
lowerback 4.25742 2.2583 4.58332
upperback -7.4081 3.58897 1.24258
thorax -10.0812 1.45221 -1.69041
lowerneck -12.6259 -2.38204 2.11161
upperneck 28.7419 -3.15381 -2.73324
head 11.318 -1.5403 -1.78425
rclavicle 6.4605e-015 2.42517e-014
rhumerus -21.0687 48.6589 -93.3402
rradius 86.9859
rwrist 5.32245
rhand -5.64323 -56.5948
rfingers 7.12502
rthumb 20.1753 -1525.57
lclavicle 6.4605e-015 2.42517e-014
lhumerus -32.0047 -28.549 103.07
lradius 88.1458
lwrist 6.44578
lhand -39.2205 -7.05147
lfingers 7.12502
lthumb -12.2162 22.5718
rfemur -0.566316 23.3996 24.6673
rtibia 2.68751
rfoot -11.6208 -20.4114
rtoes -0.434862
lfemur 8.39172 -38.9456 -17.6167
ltibia -3.55178
lfoot -16.2174 48.5116
ltoes 8.67501
508
root -0.299161 17.5654 7.70025 6.40247 -2.31289 -7.15554
lowerback 4.21108 2.27053 4.67014
upperback -7.40975 3.61088 1.24113
thorax -10.0494 1.45729 -1.74052
lowerneck -12.3216 -2.45146 2.16485
upperneck 27.9154 -3.2304 -2.82909
head 10.9361 -1.58948 -1.81131
rclavicle 3.32964e-014 -1.43125e-014
rhumerus -21.7058 46.948 -93.3932
rradius 91.4828
rwrist 7.82317
rhand -5.82153 -56.6614
rfingers 7.12502
rthumb 20.0039 -1525.65
lclavicle 3.32964e-014 -1.43125e-014
lhumerus -32.1122 -28.471 103.152
lradius 88.376
lwrist 5.68928
lhand -39.1805 -7.19645
lfingers 7.12502
lthumb -12.1777 22.4291
rfemur -0.67896 23.465 24.708
rtibia 2.6252
rfoot -11.7341 -20.6286
rtoes -0.230721
lfemur 8.19701 -39.1989 -17.4101
ltibia -3.62049
lfoot -16.2202 48.5923
ltoes 8.80081
509
root -0.299541 17.5699 7.70419 6.66245 -1.9386 -7.23652
lowerback 4.2244 2.16679 4.75908
upperback -7.54591 3.49575 1.33571
thorax -10.2197 1.39257 -1.67869
lowerneck -12.0769 -2.4424 2.08991
upperneck 27.5 -3.13478 -3.03506
head 10.731 -1.5821 -1.84549
rclavicle 2.88238e-014 9.93923e-015
rhumerus -22.302 45.1651 -93.4563
rradius 96.2967
rwrist 10.2802
rhand -8.97057 -56.1154
rfingers 7.12502
rthumb 16.9748 -1525.39
lclavicle 2.88238e-014 9.93923e-015
lhumerus -32.5453 -28.0945 103.374
lradius 88.7057
lwrist 5.23572
lhand -39.2582 -7.31691
lfingers 7.12502
lthumb -12.2526 22.3042
rfemur -0.865081 23.6896 24.7658
rtibia 2.57285
rfoot -11.8899 -21.1283
rtoes 0.245062
lfemur 7.87198 -39.6222 -17.0744
ltibia -3.74995
lfoot -16.1405 48.6938
ltoes 8.8884
510
root -0.30074 17.5769 7.70812 6.96388 -1.49902 -7.23878
lowerback 4.08606 1.99878 4.83199
upperback -7.66304 3.27828 1.39887
thorax -10.2822 1.2814 -1.62128
lowerneck -11.8736 -2.34647 2.14261
upperneck 27.2882 -2.91162 -3.37079
head 10.6106 -1.51591 -1.93808
rclavicle -5.31749e-015 2.52457e-014
rhumerus -22.1847 43.7731 -93.1557
rradius 101.131
rwrist 12.9118
rhand -10.6898 -55.9408
rfingers 7.12502
rthumb 15.3193 -1525.35
lclavicle -5.31749e-015 2.52457e-014
lhumerus -32.9772 -27.6545 103.506
lradius 89.0106
lwrist 5.27904
lhand -39.294 -7.37074
lfingers 7.12502
lthumb -12.2871 22.2483
rfemur -1.10813 23.9632 24.7084
rtibia 2.49489
rfoot -12.0242 -21.7463
rtoes 0.747699
lfemur 7.40827 -40.0948 -16.7326
ltibia -3.83893
lfoot -15.9077 48.7742
ltoes 8.60795
511
root -0.300661 17.5833 7.71275 7.2397 -1.04753 -7.24737
lowerback 3.84726 1.80167 4.97504
upperback -7.74731 3.01377 1.4064
thorax -10.2442 1.14234 -1.65226
lowerneck -11.7797 -2.20695 2.4373
upperneck 27.2822 -2.65488 -3.81644
head 10.5844 -1.4209 -2.11489
rclavicle 3.49613e-014 2.32578e-014
rhumerus -21.6044 42.7672 -92.6601
rradius 105.042
rwrist 14.1242
rhand -14.5684 -56.6438
rfingers 7.12502
rthumb 11.581 -1526.3
lclavicle 3.49613e-014 2.32578e-014
lhumerus -33.4106 -27.2871 103.543
lradius 89.2781
lwrist 5.67179
lhand -39.3878 -7.38627
lfingers 7.12502
lthumb -12.3775 22.2273
rfemur -1.31836 24.2238 24.6577
rtibia 2.38732
rfoot -12.0898 -22.3997
rtoes 0.87877
lfemur 6.8608 -40.4891 -16.3525
ltibia -3.78403
lfoot -15.762 48.7541
ltoes 8.19991
512
root -0.298142 17.5879 7.71808 7.4134 -0.671441 -7.27514
lowerback 3.96973 1.5936 4.9845
upperback -7.99663 2.76362 1.49878
thorax -10.6206 1.01104 -1.53599
lowerneck -11.6943 -2.07737 2.70288
upperneck 27.5626 -2.41359 -4.22266
head 10.6691 -1.32948 -2.28307
rclavicle 3.57812e-015 3.57812e-014
rhumerus -21.3648 42.1658 -92.1199
rradius 106.796
rwrist 17.4555
rhand -21.9468 -53.2136
rfingers 7.12502
rthumb 4.46017 -1523.15
lclavicle 3.57812e-015 3.57812e-014
lhumerus -34.1599 -26.8378 103.826
lradius 89.5154
lwrist 6.18157
lhand -39.4539 -7.20087
lfingers 7.12502
lthumb -12.4414 22.4088
rfemur -1.42423 24.3802 24.658
rtibia 2.30713
rfoot -12.1116 -22.9218
rtoes 0.754446
lfemur 6.43491 -40.6532 -16.0249
ltibia -3.7273
lfoot -15.5292 48.6173
ltoes 7.61725
